<?xml version="1.0" standalone="no"?>
<svg xmlns:xlink="http://www.w3.org/1999/xlink" id="wave" style="transform:rotate(0deg); transition: 0.3s" viewBox="0 0 1440 110" version="1.1" xmlns="http://www.w3.org/2000/svg"><defs><linearGradient id="sw-gradient-0" x1="0" x2="0" y1="1" y2="0"><stop stop-color="rgba(246, 249, 252, 1)" offset="0%"/><stop stop-color="rgba(246, 249, 252, 1)" offset="100%"/></linearGradient></defs><path style="transform:translate(0, 0px); opacity:1" fill="url(#sw-gradient-0)" d="M0,66L48,56.8C96,48,192,29,288,23.8C384,18,480,26,576,38.5C672,51,768,70,864,78.8C960,88,1056,88,1152,77C1248,66,1344,44,1440,44C1536,44,1632,66,1728,78.8C1824,92,1920,95,2016,80.7C2112,66,2208,33,2304,16.5C2400,0,2496,0,2592,9.2C2688,18,2784,37,2880,40.3C2976,44,3072,33,3168,33C3264,33,3360,44,3456,49.5C3552,55,3648,55,3744,55C3840,55,3936,55,4032,49.5C4128,44,4224,33,4320,25.7C4416,18,4512,15,4608,12.8C4704,11,4800,11,4896,23.8C4992,37,5088,62,5184,64.2C5280,66,5376,44,5472,44C5568,44,5664,66,5760,71.5C5856,77,5952,66,6048,55C6144,44,6240,33,6336,36.7C6432,40,6528,59,6624,56.8C6720,55,6816,33,6864,22L6912,11L6912,110L6864,110C6816,110,6720,110,6624,110C6528,110,6432,110,6336,110C6240,110,6144,110,6048,110C5952,110,5856,110,5760,110C5664,110,5568,110,5472,110C5376,110,5280,110,5184,110C5088,110,4992,110,4896,110C4800,110,4704,110,4608,110C4512,110,4416,110,4320,110C4224,110,4128,110,4032,110C3936,110,3840,110,3744,110C3648,110,3552,110,3456,110C3360,110,3264,110,3168,110C3072,110,2976,110,2880,110C2784,110,2688,110,2592,110C2496,110,2400,110,2304,110C2208,110,2112,110,2016,110C1920,110,1824,110,1728,110C1632,110,1536,110,1440,110C1344,110,1248,110,1152,110C1056,110,960,110,864,110C768,110,672,110,576,110C480,110,384,110,288,110C192,110,96,110,48,110L0,110Z"/></svg>