<?xml version="1.0" standalone="no"?>
<svg xmlns:xlink="http://www.w3.org/1999/xlink" id="wave" style="transform:rotate(0deg); transition: 0.3s" viewBox="0 0 1440 100" version="1.1" xmlns="http://www.w3.org/2000/svg"><defs><linearGradient id="sw-gradient-0" x1="0" x2="0" y1="1" y2="0"><stop stop-color="rgba(255, 255, 255, 1)" offset="0%"/><stop stop-color="rgba(255, 255, 255, 1)" offset="100%"/></linearGradient></defs><path style="transform:translate(0, 0px); opacity:1" fill="url(#sw-gradient-0)" d="M0,20L34.3,16.7C68.6,13,137,7,206,8.3C274.3,10,343,20,411,31.7C480,43,549,57,617,51.7C685.7,47,754,23,823,13.3C891.4,3,960,7,1029,16.7C1097.1,27,1166,43,1234,48.3C1302.9,53,1371,47,1440,50C1508.6,53,1577,67,1646,63.3C1714.3,60,1783,40,1851,33.3C1920,27,1989,33,2057,31.7C2125.7,30,2194,20,2263,16.7C2331.4,13,2400,17,2469,23.3C2537.1,30,2606,40,2674,45C2742.9,50,2811,50,2880,41.7C2948.6,33,3017,17,3086,13.3C3154.3,10,3223,20,3291,31.7C3360,43,3429,57,3497,66.7C3565.7,77,3634,83,3703,78.3C3771.4,73,3840,57,3909,51.7C3977.1,47,4046,53,4114,55C4182.9,57,4251,53,4320,53.3C4388.6,53,4457,57,4526,51.7C4594.3,47,4663,33,4731,23.3C4800,13,4869,7,4903,3.3L4937.1,0L4937.1,100L4902.9,100C4868.6,100,4800,100,4731,100C4662.9,100,4594,100,4526,100C4457.1,100,4389,100,4320,100C4251.4,100,4183,100,4114,100C4045.7,100,3977,100,3909,100C3840,100,3771,100,3703,100C3634.3,100,3566,100,3497,100C3428.6,100,3360,100,3291,100C3222.9,100,3154,100,3086,100C3017.1,100,2949,100,2880,100C2811.4,100,2743,100,2674,100C2605.7,100,2537,100,2469,100C2400,100,2331,100,2263,100C2194.3,100,2126,100,2057,100C1988.6,100,1920,100,1851,100C1782.9,100,1714,100,1646,100C1577.1,100,1509,100,1440,100C1371.4,100,1303,100,1234,100C1165.7,100,1097,100,1029,100C960,100,891,100,823,100C754.3,100,686,100,617,100C548.6,100,480,100,411,100C342.9,100,274,100,206,100C137.1,100,69,100,34,100L0,100Z"/></svg>